# xmcd
#
# Track frame offsets: 
#        150
#        13582
#        27765
#        41960
#        58537
#        72940
#        87807
#        100307
#        117845
#        130757
#
# Disc length: 1913 seconds
#
# Revision: 7
# Processed by: cddbd v1.5.1PL2 Copyright (c) Steve Scherf et al.
# Submitted via: ExactAudioCopy v0.90b4
#
DISCID=7e07770a
DTITLE=Doug Stone - From The Heart
DYEAR=1992
DGENRE=Country
TTITLE0=Warning Labels
TTITLE1=Made For Lovin' You
TTITLE2=Leave Me The Radio
TTITLE3=This Empty House
TTITLE4=Why Didn't I Think Of That
TTITLE5=Ain't Your Memory Got No Pride At All
TTITLE6=The Workin' End Of A Hoe
TTITLE7=Too Busy Being In Love
TTITLE8=She's Got A Future In The Movies
TTITLE9=Left, Leavin', Goin' Or Gone
EXTD=
EXTT0=
EXTT1=
EXTT2=
EXTT3=
EXTT4=
EXTT5=
EXTT6=
EXTT7=
EXTT8=
EXTT9=
PLAYORDER=
